<?xml version="1.0" encoding="UTF-8" standalone="no" ?>
<!DOCTYPE svg PUBLIC "-//W3C//DTD SVG 1.1//EN" "http://www.w3.org/Graphics/SVG/1.1/DTD/svg11.dtd">
<svg xmlns="http://www.w3.org/2000/svg" xmlns:xlink="http://www.w3.org/1999/xlink" version="1.1" width="1080" height="1080" viewBox="0 0 1080 1080" xml:space="preserve">
<desc>Created with Fabric.js 4.2.0</desc>
<defs>
</defs>
<rect x="0" y="0" width="100%" height="100%" fill="transparent"></rect>
<g transform="matrix(Infinity NaN NaN Infinity 0 0)" id="ee1e3f79-63d7-4974-aabc-37ab5d44cca1"  >
</g>
<g transform="matrix(1 0 0 1 540 540)" id="2ffb5094-c75a-42c5-b88d-d31e11b908bf"  >
<rect style="stroke: none; stroke-width: 1; stroke-dasharray: none; stroke-linecap: butt; stroke-dashoffset: 0; stroke-linejoin: miter; stroke-miterlimit: 4; fill: rgb(103,75,175); fill-rule: nonzero; opacity: 1; visibility: hidden;" vector-effect="non-scaling-stroke"  x="-540" y="-540" rx="0" ry="0" width="1080" height="1080" />
</g>
<g transform="matrix(1.58 0 0 1.58 540 540)" id="56e0f1c2-fffc-412c-8c41-c2d53eb0efb2"  >
<path style="stroke: rgb(0,0,0); stroke-width: 0; stroke-dasharray: none; stroke-linecap: butt; stroke-dashoffset: 0; stroke-linejoin: miter; stroke-miterlimit: 4; fill: rgb(255,255,255); fill-rule: nonzero; opacity: 1;" vector-effect="non-scaling-stroke"  transform=" translate(-160, -256)" d="M 279.14 288 L 293.36 195.34 L 204.45000000000002 195.34 L 204.45000000000002 135.21 C 204.45000000000002 109.86000000000001 216.87 85.15 256.69 85.15 L 297.11 85.15 L 297.11 6.26 C 297.11 6.26 260.43 0 225.36 0 C 152.14000000000001 0 104.28000000000002 44.38 104.28000000000002 124.72 L 104.28000000000002 195.34 L 22.89 195.34 L 22.89 288 L 104.28 288 L 104.28 512 L 204.45 512 L 204.45 288 z" stroke-linecap="round" />
</g>
</svg>