<?xml version="1.0" encoding="UTF-8" standalone="no" ?>
<!DOCTYPE svg PUBLIC "-//W3C//DTD SVG 1.1//EN" "http://www.w3.org/Graphics/SVG/1.1/DTD/svg11.dtd">
<svg xmlns="http://www.w3.org/2000/svg" xmlns:xlink="http://www.w3.org/1999/xlink" version="1.1" width="1080" height="1080" viewBox="0 0 1080 1080" xml:space="preserve">
<desc>Created with Fabric.js 4.2.0</desc>
<defs>
</defs>
<g transform="matrix(1 0 0 1 540 540)" id="1f7b8d70-056c-443b-bf84-99f7a3351328"  >
<rect style="stroke: none; stroke-width: 1; stroke-dasharray: none; stroke-linecap: butt; stroke-dashoffset: 0; stroke-linejoin: miter; stroke-miterlimit: 4; fill: rgb(255,255,255); fill-rule: nonzero; opacity: 1; visibility: hidden;" vector-effect="non-scaling-stroke"  x="-540" y="-540" rx="0" ry="0" width="1080" height="1080" />
</g>
<g transform="matrix(Infinity NaN NaN Infinity 0 0)" id="323e1a12-57c8-40fe-afa1-ea72485e8980"  >
</g>
<g transform="matrix(0.96 0 0 0.96 540 540)"  >
<g style="" vector-effect="non-scaling-stroke"   >
		<g transform="matrix(1 0 0 1 0 0)"  >
<path style="stroke: none; stroke-width: 1; stroke-dasharray: none; stroke-linecap: butt; stroke-dashoffset: 0; stroke-linejoin: miter; stroke-miterlimit: 4; fill: rgb(255,255,255); fill-rule: nonzero; opacity: 1;" vector-effect="non-scaling-stroke"  transform=" translate(-256, -256)" d="M 349.33 69.33 C 400.81643563965775 69.48375744784636 442.51624255215364 111.18356436034225 442.66999999999996 162.67000000000002 L 442.66999999999996 349.33000000000004 C 442.51624255215364 400.81643563965787 400.81643563965775 442.5162425521537 349.3299999999999 442.6700000000001 L 162.67 442.6700000000001 C 111.18356436034216 442.5162425521537 69.48375744784632 400.81643563965787 69.32999999999998 349.33000000000004 L 69.32999999999998 162.67 C 69.48375744784633 111.18356436034219 111.18356436034216 69.48375744784636 162.66999999999996 69.32999999999998 L 349.33 69.32999999999998 M 349.33 31.999999999999986 L 162.67 31.999999999999986 C 90.8 32 32 90.8 32 162.67 L 32 349.33 C 32 421.2 90.8 480 162.67 480 L 349.33 480 C 421.2 480 480 421.2 480 349.33 L 480 162.67 C 480 90.8 421.2 32 349.33 32 z" stroke-linecap="round" />
</g>
		<g transform="matrix(1 0 0 1 18.67 -18.66)"  >
<path style="stroke: none; stroke-width: 1; stroke-dasharray: none; stroke-linecap: butt; stroke-dashoffset: 0; stroke-linejoin: miter; stroke-miterlimit: 4; fill: rgb(255,255,255); fill-rule: nonzero; opacity: 1;" vector-effect="non-scaling-stroke"  transform=" translate(-274.67, -237.34)" d="M 377.33 162.67 C 361.86602700473776 162.67 349.33 150.1339729952622 349.33 134.67 C 349.33 119.20602700473778 361.86602700473776 106.66999999999999 377.33 106.66999999999999 C 392.7939729952622 106.66999999999999 405.33 119.20602700473776 405.33 134.67 C 405.3459748619171 142.1009474932524 402.40111353387283 149.2321425239511 397.14662802891195 154.48662802891195 C 391.8921425239511 159.7411135338728 384.7609474932524 162.68597486191715 377.33 162.67 z M 256 181.33 C 297.2391022698653 181.33 330.67 214.76089773013464 330.67 256 C 330.67 297.2391022698653 297.2391022698654 330.66999999999996 256.00000000000006 330.66999999999996 C 214.76089773013467 330.66999999999996 181.33000000000004 297.2391022698654 181.33 256 C 181.374092376153 214.77917520433675 214.77917520433672 181.374092376153 255.99999999999997 181.32999999999998 M 256 144 C 194.14410801895116 144 144 194.14410801895116 144 256 C 144 317.85589198104884 194.14410801895116 368 256 368 C 317.85589198104884 368 368 317.85589198104884 368 256 C 368 194.14410801895116 317.85589198104884 144 256 144 z" stroke-linecap="round" />
</g>
</g>
</g>
</svg>