<?xml version="1.0" encoding="UTF-8" standalone="no" ?>
<!DOCTYPE svg PUBLIC "-//W3C//DTD SVG 1.1//EN" "http://www.w3.org/Graphics/SVG/1.1/DTD/svg11.dtd">
<svg xmlns="http://www.w3.org/2000/svg" xmlns:xlink="http://www.w3.org/1999/xlink" version="1.1" width="1080" height="1080" viewBox="0 0 1080 1080" xml:space="preserve">
<desc>Created with Fabric.js 4.2.0</desc>
<defs>
</defs>
<g transform="matrix(Infinity NaN NaN Infinity 0 0)" id="323e1a12-57c8-40fe-afa1-ea72485e8980"  >
</g>
<g transform="matrix(1 0 0 1 540 540)" id="1f7b8d70-056c-443b-bf84-99f7a3351328"  >
<rect style="stroke: none; stroke-width: 1; stroke-dasharray: none; stroke-linecap: butt; stroke-dashoffset: 0; stroke-linejoin: miter; stroke-miterlimit: 4; fill: rgb(255,255,255); fill-rule: nonzero; opacity: 1; visibility: hidden;" vector-effect="non-scaling-stroke"  x="-540" y="-540" rx="0" ry="0" width="1080" height="1080" />
</g>
<g transform="matrix(0.9 0 0 0.9 540 540)" id="fc169e3c-f965-4b18-b4e2-13fb2ca9e6a5"  >
<path style="stroke: rgb(0,0,0); stroke-width: 0; stroke-dasharray: none; stroke-linecap: butt; stroke-dashoffset: 0; stroke-linejoin: miter; stroke-miterlimit: 4; fill: rgb(255,255,255); fill-rule: nonzero; opacity: 1;" vector-effect="non-scaling-stroke"  transform=" translate(-256, -256)" d="M 496 109.5 C 477.9945619077717 117.32352466557079 458.94386668903445 122.47782416772252 439.45 124.80000000000001 C 459.9366841190274 112.80379138043429 475.34318720667534 93.74566616700409 482.78 71.19999999999996 C 463.4109555172962 82.52591610953996 442.25556898439834 90.47271252135424 420.21999999999997 94.70000000000002 C 401.46799133120027 75.04739488815659 375.4735821702513 63.94979564964828 348.30999999999995 64.00000000000001 C 293.89 64 249.85000000000002 107.4 249.85000000000002 160.9 C 249.8114152985361 168.34164854104728 250.664153380686 175.76114130306027 252.39000000000001 183.00000000000003 C 173.484062434748 179.30091684117514 99.78881266429534 142.52589811335815 49.39000000000007 81.70000000000005 C 40.645748328167656 96.44120184462047 36.021321226256944 113.2604400718836 36.00000000000003 130.40000000000006 C 36 164 53.53 193.7 80 211.10000000000002 C 64.31727828240406 210.72780769794142 48.95590771207313 206.57701305968763 35.220000000000006 199 L 35.22 200.2 C 35.22 247.2 69.22 286.29999999999995 114.22 295.2 C 105.75783384289264 297.4558211624794 97.03768141203815 298.59878640013966 88.27999999999999 298.59999999999997 C 82.06578769330123 298.6108361300039 75.86569568073828 298.0079098402895 69.76999999999998 296.79999999999995 C 82.28 335.29999999999995 118.69 363.29999999999995 161.82 364.09999999999997 C 126.77378546393587 391.10924390199153 83.74618488088271 405.7073915818208 39.49999999999997 405.6 C 31.646179879837042 405.58831978891465 23.79965578357279 405.1208672895628 15.999999999999972 404.20000000000005 C 61.01179630490988 432.94216966505303 113.33444796758916 448.1453814391366 166.74000000000004 448 C 348.1 448 447.18 300.3 447.18 172.2 C 447.18 168 447.07 163.79999999999998 446.87 159.7 C 466.1008946562299 146.02059144890455 482.73803478847293 129.021111810423 496.00000000000006 109.49999999999994 z" stroke-linecap="round" />
</g>
</svg>